<?xml version="1.0" encoding="UTF-8" ?>
<svg xmlns="http://www.w3.org/2000/svg" version="1.1" width="1600" height="500">
  <polygon points="95,28 291,11 272,94" style="fill:rgb(255,200,100)" stroke="rgb(255,200,100)" stroke-width="2" />
  <polygon points="104,111 95,28 272,94" style="fill:rgb(255,200,100)" stroke="rgb(255,200,100)" stroke-width="2" />
  <polygon points="165,101 161,360 216,355" style="fill:rgb(255,200,100)" stroke="rgb(255,200,100)" stroke-width="2" />
  <polygon points="216,91 165,101 216,355" style="fill:rgb(255,200,100)" stroke="rgb(255,200,100)" stroke-width="2" />
  <polygon points="161,360 214,398 205,442" style="fill:rgb(255,200,100)" stroke="rgb(255,200,100)" stroke-width="2" />
  <polygon points="150,382 161,360 205,442" style="fill:rgb(255,200,100)" stroke="rgb(255,200,100)" stroke-width="2" />
  <polygon points="192,465 150,382 205,442" style="fill:rgb(255,200,100)" stroke="rgb(255,200,100)" stroke-width="2" />
  <polygon points="140,392 192,465 150,382" style="fill:rgb(255,200,100)" stroke="rgb(255,200,100)" stroke-width="2" />
  <polygon points="178,476 140,392 192,465" style="fill:rgb(255,200,100)" stroke="rgb(255,200,100)" stroke-width="2" />
  <polygon points="129,396 178,476 140,392" style="fill:rgb(255,200,100)" stroke="rgb(255,200,100)" stroke-width="2" />
  <polygon points="161,486 129,396 178,476" style="fill:rgb(255,200,100)" stroke="rgb(255,200,100)" stroke-width="2" />
  <polygon points="114,396 161,486 129,396" style="fill:rgb(255,200,100)" stroke="rgb(255,200,100)" stroke-width="2" />
  <polygon points="141,493 114,396 161,486" style="fill:rgb(255,200,100)" stroke="rgb(255,200,100)" stroke-width="2" />
  <polygon points="102,391 141,493 114,396" style="fill:rgb(255,200,100)" stroke="rgb(255,200,100)" stroke-width="2" />
  <polygon points="115,494 102,391 141,493" style="fill:rgb(255,200,100)" stroke="rgb(255,200,100)" stroke-width="2" />
  <polygon points="90,380 115,494 102,391" style="fill:rgb(255,200,100)" stroke="rgb(255,200,100)" stroke-width="2" />
  <polygon points="97,490 90,380 115,494" style="fill:rgb(255,200,100)" stroke="rgb(255,200,100)" stroke-width="2" />
  <polygon points="80,478 97,490 90,380" style="fill:rgb(255,200,100)" stroke="rgb(255,200,100)" stroke-width="2" />
  <polygon points="67,464 80,478 90,380" style="fill:rgb(255,200,100)" stroke="rgb(255,200,100)" stroke-width="2" />
  <polygon points="55,447 67,464 90,380" style="fill:rgb(255,200,100)" stroke="rgb(255,200,100)" stroke-width="2" />
  <polygon points="48,424 55,447 90,380" style="fill:rgb(255,200,100)" stroke="rgb(255,200,100)" stroke-width="2" />
  <polygon points="44,401 48,424 90,380" style="fill:rgb(255,200,100)" stroke="rgb(255,200,100)" stroke-width="2" />
  <polygon points="43,375 44,401 90,380" style="fill:rgb(255,200,100)" stroke="rgb(255,200,100)" stroke-width="2" />
  <polygon points="84,363 43,375 90,380" style="fill:rgb(255,200,100)" stroke="rgb(255,200,100)" stroke-width="2" />
  <polygon points="43,361 84,363 43,375" style="fill:rgb(255,200,100)" stroke="rgb(255,200,100)" stroke-width="2" />
  <polygon points="82,350 43,361 84,363" style="fill:rgb(255,200,100)" stroke="rgb(255,200,100)" stroke-width="2" />
  <polygon points="43,346 82,350 43,361" style="fill:rgb(255,200,100)" stroke="rgb(255,200,100)" stroke-width="2" />
  <polygon points="81,335 43,346 82,350" style="fill:rgb(255,200,100)" stroke="rgb(255,200,100)" stroke-width="2" />
  <polygon points="44,322 81,335 43,346" style="fill:rgb(255,200,100)" stroke="rgb(255,200,100)" stroke-width="2" />
  <polygon points="81,316 44,322 81,335" style="fill:rgb(255,200,100)" stroke="rgb(255,200,100)" stroke-width="2" />
  <polygon points="216,355 161,360 214,398" style="fill:rgb(255,200,100)" stroke="rgb(255,200,100)" stroke-width="2" />
  <polygon points="254,238 302,244 302,308" style="fill:rgb(255,200,100)" stroke="rgb(255,200,100)" stroke-width="2" />
  <polygon points="257,334 254,238 302,308" style="fill:rgb(255,200,100)" stroke="rgb(255,200,100)" stroke-width="2" />
  <polygon points="304,335 257,334 302,308" style="fill:rgb(255,200,100)" stroke="rgb(255,200,100)" stroke-width="2" />
  <polygon points="260,367 304,335 257,334" style="fill:rgb(255,200,100)" stroke="rgb(255,200,100)" stroke-width="2" />
  <polygon points="307,345 260,367 304,335" style="fill:rgb(255,200,100)" stroke="rgb(255,200,100)" stroke-width="2" />
  <polygon points="263,384 307,345 260,367" style="fill:rgb(255,200,100)" stroke="rgb(255,200,100)" stroke-width="2" />
  <polygon points="314,353 263,384 307,345" style="fill:rgb(255,200,100)" stroke="rgb(255,200,100)" stroke-width="2" />
  <polygon points="269,409 314,353 263,384" style="fill:rgb(255,200,100)" stroke="rgb(255,200,100)" stroke-width="2" />
  <polygon points="323,358 269,409 314,353" style="fill:rgb(255,200,100)" stroke="rgb(255,200,100)" stroke-width="2" />
  <polygon points="282,432 323,358 269,409" style="fill:rgb(255,200,100)" stroke="rgb(255,200,100)" stroke-width="2" />
  <polygon points="300,449 282,432 323,358" style="fill:rgb(255,200,100)" stroke="rgb(255,200,100)" stroke-width="2" />
  <polygon points="320,463 300,449 323,358" style="fill:rgb(255,200,100)" stroke="rgb(255,200,100)" stroke-width="2" />
  <polygon points="338,465 320,463 323,358" style="fill:rgb(255,200,100)" stroke="rgb(255,200,100)" stroke-width="2" />
  <polygon points="354,465 338,465 323,358" style="fill:rgb(255,200,100)" stroke="rgb(255,200,100)" stroke-width="2" />
  <polygon points="337,361 354,465 323,358" style="fill:rgb(255,200,100)" stroke="rgb(255,200,100)" stroke-width="2" />
  <polygon points="353,361 337,361 354,465" style="fill:rgb(255,200,100)" stroke="rgb(255,200,100)" stroke-width="2" />
  <polygon points="367,349 353,361 354,465" style="fill:rgb(255,200,100)" stroke="rgb(255,200,100)" stroke-width="2" />
  <polygon points="373,462 367,349 354,465" style="fill:rgb(255,200,100)" stroke="rgb(255,200,100)" stroke-width="2" />
  <polygon points="373,329 373,462 367,349" style="fill:rgb(255,200,100)" stroke="rgb(255,200,100)" stroke-width="2" />
  <polygon points="396,452 373,329 373,462" style="fill:rgb(255,200,100)" stroke="rgb(255,200,100)" stroke-width="2" />
  <polygon points="417,432 396,452 373,329" style="fill:rgb(255,200,100)" stroke="rgb(255,200,100)" stroke-width="2" />
  <polygon points="428,415 417,432 373,329" style="fill:rgb(255,200,100)" stroke="rgb(255,200,100)" stroke-width="2" />
  <polygon points="439,378 428,415 373,329" style="fill:rgb(255,200,100)" stroke="rgb(255,200,100)" stroke-width="2" />
  <polygon points="442,338 439,378 373,329" style="fill:rgb(255,200,100)" stroke="rgb(255,200,100)" stroke-width="2" />
  <polygon points="444,294 442,338 373,329" style="fill:rgb(255,200,100)" stroke="rgb(255,200,100)" stroke-width="2" />
  <polygon points="368,185 444,294 373,329" style="fill:rgb(255,200,100)" stroke="rgb(255,200,100)" stroke-width="2" />
  <polygon points="446,178 368,185 444,294" style="fill:rgb(255,200,100)" stroke="rgb(255,200,100)" stroke-width="2" />
  <polygon points="483,41 561,40 537,443" style="fill:rgb(255,200,100)" stroke="rgb(255,200,100)" stroke-width="2" />
  <polygon points="488,441 483,41 537,443" style="fill:rgb(255,200,100)" stroke="rgb(255,200,100)" stroke-width="2" />
  <polygon points="620,157 671,156 593,309" style="fill:rgb(255,200,100)" stroke="rgb(255,200,100)" stroke-width="2" />
  <polygon points="543,327 620,157 593,309" style="fill:rgb(255,200,100)" stroke="rgb(255,200,100)" stroke-width="2" />
  <polygon points="564,463 543,327 593,309" style="fill:rgb(255,200,100)" stroke="rgb(255,200,100)" stroke-width="2" />
  <polygon points="638,453 564,463 593,309" style="fill:rgb(255,200,100)" stroke="rgb(255,200,100)" stroke-width="2" />
  <polygon points="651,312 715,324 651,349" style="fill:rgb(255,200,100)" stroke="rgb(255,200,100)" stroke-width="2" />
  <polygon points="687,348 651,349 715,324" style="fill:rgb(255,200,100)" stroke="rgb(255,200,100)" stroke-width="2" />
  <polygon points="726,357 687,348 715,324" style="fill:rgb(255,200,100)" stroke="rgb(255,200,100)" stroke-width="2" />
  <polygon points="753,319 726,357 715,324" style="fill:rgb(255,200,100)" stroke="rgb(255,200,100)" stroke-width="2" />
  <polygon points="755,360 753,319 726,357" style="fill:rgb(255,200,100)" stroke="rgb(255,200,100)" stroke-width="2" />
  <polygon points="783,310 755,360 753,319" style="fill:rgb(255,200,100)" stroke="rgb(255,200,100)" stroke-width="2" />
  <polygon points="792,355 783,310 755,360" style="fill:rgb(255,200,100)" stroke="rgb(255,200,100)" stroke-width="2" />
  <polygon points="824,295 792,355 783,310" style="fill:rgb(255,200,100)" stroke="rgb(255,200,100)" stroke-width="2" />
  <polygon points="825,344 824,295 792,355" style="fill:rgb(255,200,100)" stroke="rgb(255,200,100)" stroke-width="2" />
  <polygon points="819,279 824,295 783,310" style="fill:rgb(255,200,100)" stroke="rgb(255,200,100)" stroke-width="2" />
  <polygon points="804,253 819,279 783,310" style="fill:rgb(255,200,100)" stroke="rgb(255,200,100)" stroke-width="2" />
  <polygon points="781,294 804,253 783,310" style="fill:rgb(255,200,100)" stroke="rgb(255,200,100)" stroke-width="2" />
  <polygon points="761,281 781,294 804,253" style="fill:rgb(255,200,100)" stroke="rgb(255,200,100)" stroke-width="2" />
  <polygon points="783,239 761,281 804,253" style="fill:rgb(255,200,100)" stroke="rgb(255,200,100)" stroke-width="2" />
  <polygon points="753,230 783,239 761,281" style="fill:rgb(255,200,100)" stroke="rgb(255,200,100)" stroke-width="2" />
  <polygon points="727,283 753,230 761,281" style="fill:rgb(255,200,100)" stroke="rgb(255,200,100)" stroke-width="2" />
  <polygon points="730,229 727,283 753,230" style="fill:rgb(255,200,100)" stroke="rgb(255,200,100)" stroke-width="2" />
  <polygon points="693,239 730,229 727,283" style="fill:rgb(255,200,100)" stroke="rgb(255,200,100)" stroke-width="2" />
  <polygon points="700,302 693,239 727,283" style="fill:rgb(255,200,100)" stroke="rgb(255,200,100)" stroke-width="2" />
  <polygon points="675,256 700,302 693,239" style="fill:rgb(255,200,100)" stroke="rgb(255,200,100)" stroke-width="2" />
  <polygon points="664,275 675,256 700,302" style="fill:rgb(255,200,100)" stroke="rgb(255,200,100)" stroke-width="2" />
  <polygon points="651,312 664,275 700,302" style="fill:rgb(255,200,100)" stroke="rgb(255,200,100)" stroke-width="2" />
  <polygon points="684,322 651,312 700,302" style="fill:rgb(255,200,100)" stroke="rgb(255,200,100)" stroke-width="2" />
  <polygon points="658,383 687,348 651,349" style="fill:rgb(255,200,100)" stroke="rgb(255,200,100)" stroke-width="2" />
  <polygon points="693,363 658,383 687,348" style="fill:rgb(255,200,100)" stroke="rgb(255,200,100)" stroke-width="2" />
  <polygon points="701,374 693,363 658,383" style="fill:rgb(255,200,100)" stroke="rgb(255,200,100)" stroke-width="2" />
  <polygon points="666,401 701,374 658,383" style="fill:rgb(255,200,100)" stroke="rgb(255,200,100)" stroke-width="2" />
  <polygon points="714,385 666,401 701,374" style="fill:rgb(255,200,100)" stroke="rgb(255,200,100)" stroke-width="2" />
  <polygon points="678,416 714,385 666,401" style="fill:rgb(255,200,100)" stroke="rgb(255,200,100)" stroke-width="2" />
  <polygon points="698,432 678,416 714,385" style="fill:rgb(255,200,100)" stroke="rgb(255,200,100)" stroke-width="2" />
  <polygon points="731,393 698,432 714,385" style="fill:rgb(255,200,100)" stroke="rgb(255,200,100)" stroke-width="2" />
  <polygon points="752,395 731,393 698,432" style="fill:rgb(255,200,100)" stroke="rgb(255,200,100)" stroke-width="2" />
  <polygon points="719,439 752,395 698,432" style="fill:rgb(255,200,100)" stroke="rgb(255,200,100)" stroke-width="2" />
  <polygon points="745,443 719,439 752,395" style="fill:rgb(255,200,100)" stroke="rgb(255,200,100)" stroke-width="2" />
  <polygon points="776,444 745,443 752,395" style="fill:rgb(255,200,100)" stroke="rgb(255,200,100)" stroke-width="2" />
  <polygon points="778,391 776,444 752,395" style="fill:rgb(255,200,100)" stroke="rgb(255,200,100)" stroke-width="2" />
  <polygon points="791,386 778,391 776,444" style="fill:rgb(255,200,100)" stroke="rgb(255,200,100)" stroke-width="2" />
  <polygon points="808,375 791,386 776,444" style="fill:rgb(255,200,100)" stroke="rgb(255,200,100)" stroke-width="2" />
  <polygon points="794,415 808,375 776,444" style="fill:rgb(255,200,100)" stroke="rgb(255,200,100)" stroke-width="2" />
  <polygon points="863,38 909,38 933,86" style="fill:rgb(255,200,100)" stroke="rgb(255,200,100)" stroke-width="2" />
  <polygon points="936,44 933,86 909,38" style="fill:rgb(255,200,100)" stroke="rgb(255,200,100)" stroke-width="2" />
  <polygon points="866,137 863,38 933,86" style="fill:rgb(255,200,100)" stroke="rgb(255,200,100)" stroke-width="2" />
  <polygon points="930,266 866,137 933,86" style="fill:rgb(255,200,100)" stroke="rgb(255,200,100)" stroke-width="2" />
  <polygon points="870,466 930,266 866,137" style="fill:rgb(255,200,100)" stroke="rgb(255,200,100)" stroke-width="2" />
  <polygon points="921,459 870,466 930,266" style="fill:rgb(255,200,100)" stroke="rgb(255,200,100)" stroke-width="2" />
  <polygon points="928,456 921,459 930,266" style="fill:rgb(255,200,100)" stroke="rgb(255,200,100)" stroke-width="2" />
  <polygon points="965,52 936,44 933,86" style="fill:rgb(255,200,100)" stroke="rgb(255,200,100)" stroke-width="2" />
  <polygon points="993,65 965,52 933,86" style="fill:rgb(255,200,100)" stroke="rgb(255,200,100)" stroke-width="2" />
  <polygon points="951,92 993,65 933,86" style="fill:rgb(255,200,100)" stroke="rgb(255,200,100)" stroke-width="2" />
  <polygon points="965,105 951,92 993,65" style="fill:rgb(255,200,100)" stroke="rgb(255,200,100)" stroke-width="2" />
  <polygon points="981,130 965,105 993,65" style="fill:rgb(255,200,100)" stroke="rgb(255,200,100)" stroke-width="2" />
  <polygon points="1015,80 981,130 993,65" style="fill:rgb(255,200,100)" stroke="rgb(255,200,100)" stroke-width="2" />
  <polygon points="1028,92 1015,80 981,130" style="fill:rgb(255,200,100)" stroke="rgb(255,200,100)" stroke-width="2" />
  <polygon points="1041,114 1028,92 981,130" style="fill:rgb(255,200,100)" stroke="rgb(255,200,100)" stroke-width="2" />
  <polygon points="1050,133 1041,114 981,130" style="fill:rgb(255,200,100)" stroke="rgb(255,200,100)" stroke-width="2" />
  <polygon points="984,150 1050,133 981,130" style="fill:rgb(255,200,100)" stroke="rgb(255,200,100)" stroke-width="2" />
  <polygon points="1056,161 984,150 1050,133" style="fill:rgb(255,200,100)" stroke="rgb(255,200,100)" stroke-width="2" />
  <polygon points="986,171 1056,161 984,150" style="fill:rgb(255,200,100)" stroke="rgb(255,200,100)" stroke-width="2" />
  <polygon points="1056,190 986,171 1056,161" style="fill:rgb(255,200,100)" stroke="rgb(255,200,100)" stroke-width="2" />
  <polygon points="982,205 1056,190 986,171" style="fill:rgb(255,200,100)" stroke="rgb(255,200,100)" stroke-width="2" />
  <polygon points="1050,217 982,205 1056,190" style="fill:rgb(255,200,100)" stroke="rgb(255,200,100)" stroke-width="2" />
  <polygon points="976,223 1050,217 982,205" style="fill:rgb(255,200,100)" stroke="rgb(255,200,100)" stroke-width="2" />
  <polygon points="1038,241 976,223 1050,217" style="fill:rgb(255,200,100)" stroke="rgb(255,200,100)" stroke-width="2" />
  <polygon points="1022,264 1038,241 976,223" style="fill:rgb(255,200,100)" stroke="rgb(255,200,100)" stroke-width="2" />
  <polygon points="1004,275 1022,264 976,223" style="fill:rgb(255,200,100)" stroke="rgb(255,200,100)" stroke-width="2" />
  <polygon points="981,282 1004,275 976,223" style="fill:rgb(255,200,100)" stroke="rgb(255,200,100)" stroke-width="2" />
  <polygon points="964,241 981,282 976,223" style="fill:rgb(255,200,100)" stroke="rgb(255,200,100)" stroke-width="2" />
  <polygon points="948,257 964,241 981,282" style="fill:rgb(255,200,100)" stroke="rgb(255,200,100)" stroke-width="2" />
  <polygon points="928,267 948,257 981,282" style="fill:rgb(255,200,100)" stroke="rgb(255,200,100)" stroke-width="2" />
  <polygon points="928,290 928,267 981,282" style="fill:rgb(255,200,100)" stroke="rgb(255,200,100)" stroke-width="2" />
  <polygon points="950,306 928,290 981,282" style="fill:rgb(255,200,100)" stroke="rgb(255,200,100)" stroke-width="2" />
  <polygon points="989,288 950,306 981,282" style="fill:rgb(255,200,100)" stroke="rgb(255,200,100)" stroke-width="2" />
  <polygon points="1002,300 989,288 950,306" style="fill:rgb(255,200,100)" stroke="rgb(255,200,100)" stroke-width="2" />
  <polygon points="962,326 1002,300 950,306" style="fill:rgb(255,200,100)" stroke="rgb(255,200,100)" stroke-width="2" />
  <polygon points="1014,314 962,326 1002,300" style="fill:rgb(255,200,100)" stroke="rgb(255,200,100)" stroke-width="2" />
  <polygon points="971,350 1014,314 962,326" style="fill:rgb(255,200,100)" stroke="rgb(255,200,100)" stroke-width="2" />
  <polygon points="1023,339 971,350 1014,314" style="fill:rgb(255,200,100)" stroke="rgb(255,200,100)" stroke-width="2" />
  <polygon points="1024,366 1023,339 971,350" style="fill:rgb(255,200,100)" stroke="rgb(255,200,100)" stroke-width="2" />
  <polygon points="968,373 1024,366 971,350" style="fill:rgb(255,200,100)" stroke="rgb(255,200,100)" stroke-width="2" />
  <polygon points="1021,388 968,373 1024,366" style="fill:rgb(255,200,100)" stroke="rgb(255,200,100)" stroke-width="2" />
  <polygon points="1004,413 1021,388 968,373" style="fill:rgb(255,200,100)" stroke="rgb(255,200,100)" stroke-width="2" />
  <polygon points="979,432 1004,413 968,373" style="fill:rgb(255,200,100)" stroke="rgb(255,200,100)" stroke-width="2" />
  <polygon points="957,394 979,432 968,373" style="fill:rgb(255,200,100)" stroke="rgb(255,200,100)" stroke-width="2" />
  <polygon points="945,409 957,394 979,432" style="fill:rgb(255,200,100)" stroke="rgb(255,200,100)" stroke-width="2" />
  <polygon points="957,444 945,409 979,432" style="fill:rgb(255,200,100)" stroke="rgb(255,200,100)" stroke-width="2" />
  <polygon points="928,456 957,444 945,409" style="fill:rgb(255,200,100)" stroke="rgb(255,200,100)" stroke-width="2" />
  <polygon points="926,419 928,456 945,409" style="fill:rgb(255,200,100)" stroke="rgb(255,200,100)" stroke-width="2" />
  <polygon points="1104,237 1143,273 1128,227" style="fill:rgb(255,200,100)" stroke="rgb(255,200,100)" stroke-width="2" />
  <polygon points="1167,228 1128,227 1143,273" style="fill:rgb(255,200,100)" stroke="rgb(255,200,100)" stroke-width="2" />
  <polygon points="1158,262 1167,228 1143,273" style="fill:rgb(255,200,100)" stroke="rgb(255,200,100)" stroke-width="2" />
  <polygon points="1198,234 1158,262 1167,228" style="fill:rgb(255,200,100)" stroke="rgb(255,200,100)" stroke-width="2" />
  <polygon points="1171,270 1198,234 1158,262" style="fill:rgb(255,200,100)" stroke="rgb(255,200,100)" stroke-width="2" />
  <polygon points="1181,292 1171,270 1198,234" style="fill:rgb(255,200,100)" stroke="rgb(255,200,100)" stroke-width="2" />
  <polygon points="1227,252 1181,292 1198,234" style="fill:rgb(255,200,100)" stroke="rgb(255,200,100)" stroke-width="2" />
  <polygon points="1238,266 1227,252 1181,292" style="fill:rgb(255,200,100)" stroke="rgb(255,200,100)" stroke-width="2" />
  <polygon points="1245,291 1238,266 1181,292" style="fill:rgb(255,200,100)" stroke="rgb(255,200,100)" stroke-width="2" />
  <polygon points="1247,320 1245,291 1181,292" style="fill:rgb(255,200,100)" stroke="rgb(255,200,100)" stroke-width="2" />
  <polygon points="1178,349 1247,320 1181,292" style="fill:rgb(255,200,100)" stroke="rgb(255,200,100)" stroke-width="2" />
  <polygon points="1245,351 1178,349 1247,320" style="fill:rgb(255,200,100)" stroke="rgb(255,200,100)" stroke-width="2" />
  <polygon points="1236,378 1245,351 1178,349" style="fill:rgb(255,200,100)" stroke="rgb(255,200,100)" stroke-width="2" />
  <polygon points="1218,404 1236,378 1178,349" style="fill:rgb(255,200,100)" stroke="rgb(255,200,100)" stroke-width="2" />
  <polygon points="1199,417 1218,404 1178,349" style="fill:rgb(255,200,100)" stroke="rgb(255,200,100)" stroke-width="2" />
  <polygon points="1168,378 1199,417 1178,349" style="fill:rgb(255,200,100)" stroke="rgb(255,200,100)" stroke-width="2" />
  <polygon points="1161,396 1168,378 1199,417" style="fill:rgb(255,200,100)" stroke="rgb(255,200,100)" stroke-width="2" />
  <polygon points="1150,403 1161,396 1199,417" style="fill:rgb(255,200,100)" stroke="rgb(255,200,100)" stroke-width="2" />
  <polygon points="1183,424 1150,403 1199,417" style="fill:rgb(255,200,100)" stroke="rgb(255,200,100)" stroke-width="2" />
  <polygon points="1153,428 1183,424 1150,403" style="fill:rgb(255,200,100)" stroke="rgb(255,200,100)" stroke-width="2" />
  <polygon points="1128,428 1153,428 1150,403" style="fill:rgb(255,200,100)" stroke="rgb(255,200,100)" stroke-width="2" />
  <polygon points="1136,399 1128,428 1150,403" style="fill:rgb(255,200,100)" stroke="rgb(255,200,100)" stroke-width="2" />
  <polygon points="1128,382 1136,399 1128,428" style="fill:rgb(255,200,100)" stroke="rgb(255,200,100)" stroke-width="2" />
  <polygon points="1111,424 1128,382 1128,428" style="fill:rgb(255,200,100)" stroke="rgb(255,200,100)" stroke-width="2" />
  <polygon points="1093,416 1111,424 1128,382" style="fill:rgb(255,200,100)" stroke="rgb(255,200,100)" stroke-width="2" />
  <polygon points="1077,402 1093,416 1128,382" style="fill:rgb(255,200,100)" stroke="rgb(255,200,100)" stroke-width="2" />
  <polygon points="1066,387 1077,402 1128,382" style="fill:rgb(255,200,100)" stroke="rgb(255,200,100)" stroke-width="2" />
  <polygon points="1057,360 1066,387 1128,382" style="fill:rgb(255,200,100)" stroke="rgb(255,200,100)" stroke-width="2" />
  <polygon points="1125,359 1057,360 1128,382" style="fill:rgb(255,200,100)" stroke="rgb(255,200,100)" stroke-width="2" />
  <polygon points="1126,327 1125,359 1057,360" style="fill:rgb(255,200,100)" stroke="rgb(255,200,100)" stroke-width="2" />
  <polygon points="1054,330 1126,327 1057,360" style="fill:rgb(255,200,100)" stroke="rgb(255,200,100)" stroke-width="2" />
  <polygon points="1131,296 1054,330 1126,327" style="fill:rgb(255,200,100)" stroke="rgb(255,200,100)" stroke-width="2" />
  <polygon points="1058,303 1131,296 1054,330" style="fill:rgb(255,200,100)" stroke="rgb(255,200,100)" stroke-width="2" />
  <polygon points="1065,280 1058,303 1131,296" style="fill:rgb(255,200,100)" stroke="rgb(255,200,100)" stroke-width="2" />
  <polygon points="1079,258 1065,280 1131,296" style="fill:rgb(255,200,100)" stroke="rgb(255,200,100)" stroke-width="2" />
  <polygon points="1137,284 1079,258 1131,296" style="fill:rgb(255,200,100)" stroke="rgb(255,200,100)" stroke-width="2" />
  <polygon points="1143,273 1137,284 1079,258" style="fill:rgb(255,200,100)" stroke="rgb(255,200,100)" stroke-width="2" />
  <polygon points="1091,244 1143,273 1079,258" style="fill:rgb(255,200,100)" stroke="rgb(255,200,100)" stroke-width="2" />
  <polygon points="1104,237 1091,244 1143,273" style="fill:rgb(255,200,100)" stroke="rgb(255,200,100)" stroke-width="2" />
  <polygon points="1310,332 1316,214 1353,330" style="fill:rgb(255,200,100)" stroke="rgb(255,200,100)" stroke-width="2" />
  <polygon points="1328,365 1310,332 1353,330" style="fill:rgb(255,200,100)" stroke="rgb(255,200,100)" stroke-width="2" />
  <polygon points="1364,344 1328,365 1353,330" style="fill:rgb(255,200,100)" stroke="rgb(255,200,100)" stroke-width="2" />
  <polygon points="1416,444 1364,344 1328,365" style="fill:rgb(255,200,100)" stroke="rgb(255,200,100)" stroke-width="2" />
  <polygon points="1359,461 1416,444 1328,365" style="fill:rgb(255,200,100)" stroke="rgb(255,200,100)" stroke-width="2" />
  <polygon points="1427,208 1364,344 1353,330" style="fill:rgb(255,200,100)" stroke="rgb(255,200,100)" stroke-width="2" />
  <polygon points="1388,214 1427,208 1353,330" style="fill:rgb(255,200,100)" stroke="rgb(255,200,100)" stroke-width="2" />
  <polygon points="1345,312 1388,214 1353,330" style="fill:rgb(255,200,100)" stroke="rgb(255,200,100)" stroke-width="2" />
  <polygon points="1260,233 1310,332 1316,214" style="fill:rgb(255,200,100)" stroke="rgb(255,200,100)" stroke-width="2" />
  <polygon points="1247,466 1328,365 1310,332" style="fill:rgb(255,200,100)" stroke="rgb(255,200,100)" stroke-width="2" />
  <polygon points="1287,463 1247,466 1328,365" style="fill:rgb(255,200,100)" stroke="rgb(255,200,100)" stroke-width="2" />
  <polygon points="1517,12 1562,27 1507,332" style="fill:rgb(255,200,100)" stroke="rgb(255,200,100)" stroke-width="2" />
  <polygon points="1457,324 1517,12 1507,332" style="fill:rgb(255,200,100)" stroke="rgb(255,200,100)" stroke-width="2" />
  <polygon points="1456,11 1457,324 1517,12" style="fill:rgb(255,200,100)" stroke="rgb(255,200,100)" stroke-width="2" />
  <polygon points="1480,396 1503,398 1518,368" style="fill:rgb(255,200,100)" stroke="rgb(255,200,100)" stroke-width="2" />  <polygon points="1495,362 1480,396 1518,368" style="fill:rgb(255,200,100)" stroke="rgb(255,200,100)" stroke-width="2" />  <polygon points="1472,364 1495,362 1480,396" style="fill:rgb(255,200,100)" stroke="rgb(255,200,100)" stroke-width="2" />  <polygon points="1452,379 1472,364 1480,396" style="fill:rgb(255,200,100)" stroke="rgb(255,200,100)" stroke-width="2" />  <polygon points="1444,400 1452,379 1480,396" style="fill:rgb(255,200,100)" stroke="rgb(255,200,100)" stroke-width="2" />  <polygon points="1479,419 1444,400 1480,396" style="fill:rgb(255,200,100)" stroke="rgb(255,200,100)" stroke-width="2" />  <polygon points="1449,428 1479,419 1444,400" style="fill:rgb(255,200,100)" stroke="rgb(255,200,100)" stroke-width="2" />  <polygon points="1462,444 1449,428 1479,419" style="fill:rgb(255,200,100)" stroke="rgb(255,200,100)" stroke-width="2" />  <polygon points="1502,419 1462,444 1479,419" style="fill:rgb(255,200,100)" stroke="rgb(255,200,100)" stroke-width="2" />  <polygon points="1480,452 1502,419 1462,444" style="fill:rgb(255,200,100)" stroke="rgb(255,200,100)" stroke-width="2" />  <polygon points="1507,450 1480,452 1502,419" style="fill:rgb(255,200,100)" stroke="rgb(255,200,100)" stroke-width="2" />  <polygon points="1526,441 1507,450 1502,419" style="fill:rgb(255,200,100)" stroke="rgb(255,200,100)" stroke-width="2" />  <polygon points="1534,418 1526,441 1502,419" style="fill:rgb(255,200,100)" stroke="rgb(255,200,100)" stroke-width="2" />  <polygon points="1503,398 1534,418 1502,419" style="fill:rgb(255,200,100)" stroke="rgb(255,200,100)" stroke-width="2" />  <polygon points="1534,393 1503,398 1534,418" style="fill:rgb(255,200,100)" stroke="rgb(255,200,100)" stroke-width="2" />  <polygon points="1527,378 1534,393 1503,398" style="fill:rgb(255,200,100)" stroke="rgb(255,200,100)" stroke-width="2" />  <polygon points="1518,368 1527,378 1503,398" style="fill:rgb(255,200,100)" stroke="rgb(255,200,100)" stroke-width="2" />
</svg>